<svg xmlns="http://www.w3.org/2000/svg" width="250" height="81" viewBox="0 0 250 81">
  <g id="ajmer_logo" transform="translate(-96.833 -155.055)">
    <g id="Group_27" data-name="Group 27" transform="translate(96.833 155.255)">
      <g id="ajmer_logo-2" data-name="ajmer_logo" transform="translate(0)">
        <g id="sign">
          <g id="Group_1" data-name="Group 1">
            <path id="Path_1" data-name="Path 1" d="M137.1,155.254A40.275,40.275,0,0,1,172.01,215.6a46.543,46.543,0,0,0-7.623-6.977,30.3,30.3,0,1,0-5.876,8.285,13.781,13.781,0,0,1,7.284,6.858A40.265,40.265,0,1,1,137.1,155.254" transform="translate(-96.833 -155.254)" fill="#ce171e" fill-rule="evenodd"/>
          </g>
          <g id="Group_2" data-name="Group 2" transform="matrix(-0.072, 0.997, -0.997, -0.072, 69.417, 62.213)">
            <path id="Path_2" data-name="Path 2" d="M6.314,15.332A30.342,30.342,0,0,0,0,7.76,13.778,13.778,0,0,1,6.314,0a40.449,40.449,0,0,1,7.472,8.419,25.542,25.542,0,0,0-7.472,6.913" fill="#ba1319" fill-rule="evenodd"/>
          </g>
          <g id="Group_3" data-name="Group 3" transform="translate(19.91 19.94)">
            <path id="Path_3" data-name="Path 3" d="M195.29,187.213a40.075,40.075,0,0,1,30.041,28.956H214.874a30.076,30.076,0,0,0-21.523-19.141c-4.235-.971-8.869.217-13.505-1.283a20.585,20.585,0,0,1,6.789-40.041q9.562,0,15.086,5.605t5.511,15.315v10.227H197.063v-9.161c0-3.52-1.1-6.969-3.236-9.059a10.337,10.337,0,0,0-16.21,2.383c-2.349,4.076-1.958,8.709,1.717,12.506a9.947,9.947,0,0,0,2.951,2.049c2.695,1.253,8.925.741,13,1.643" transform="translate(-166.067 -155.704)" fill="#ce171e"/>
          </g>
          <g id="Group_4" data-name="Group 4" transform="translate(43.822 43.822) rotate(180)">
            <path id="Path_4" data-name="Path 4" d="M3.555,7.109A3.555,3.555,0,1,1,7.109,3.555,3.554,3.554,0,0,1,3.555,7.109" fill="#ce171e" fill-rule="evenodd"/>
          </g>
        </g>
        <g id="Group_5" data-name="Group 5" transform="translate(95.204 8.491)">
          <rect id="Rectangle_10" data-name="Rectangle 10" width="250" height="81" transform="translate(-95.204 -8.691)" fill="#fff" opacity="0"/>
          <path id="Path_5" data-name="Path 5" d="M449.4,248.6l-8.1,0v-1.452q-1.041,1.981-5.9,1.978-7.5,0-7.508-5.875l0-7.511a6.087,6.087,0,0,1,1.826-4.388q1.817-1.864,7.327-4.671c2.122-1.077,3.19-1.935,3.19-2.573l0-5.543c0-1.221-.527-1.837-1.584-1.837-1.209,0-1.8,1.5-1.8,4.475,0,.538.022,1.33.087,2.387.087,1.056.131,1.846.131,2.386l-8.842,0,0-7.479q0-7.571,10.946-7.573,10.243,0,10.235,7.9Zm-9.169-6.986,0-9.645q-3.167.775-3.169,2.836v6.807a1.483,1.483,0,0,0,1.649,1.705C439.721,243.323,440.227,242.752,440.227,241.618Zm20.78-36.336-9.173,0,.115-8.951,9.173,0ZM446.6,256.522v-5.477a15.28,15.28,0,0,0,4.388-.35c.518-.242.77-.979.77-2.222l.013-37.281,9.173,0-.014,38.271q0,7.06-7.469,7.056Zm50.634-7.9-9.171,0,.01-29.9c0-1.132-.516-1.705-1.561-1.705a1.437,1.437,0,0,0-1.606,1.638l-.011,29.968-9.171,0,.01-30.022c0-1.144-.515-1.716-1.561-1.717a1.44,1.44,0,0,0-1.6,1.65l-.012,30.088-9.171,0L463.4,211.2l9.173,0v1.32q1.9-1.583,5.7-1.582a8.106,8.106,0,0,1,5.805,2.552,8.623,8.623,0,0,1,6.6-2.549,7.788,7.788,0,0,1,4.487,1.432,4.563,4.563,0,0,1,2.089,3.981Zm23.552-15.828-12.274,0,0,8.667c0,1.264.516,1.892,1.561,1.892,1.022,0,1.54-.627,1.54-1.891l0-7.479,9.173,0,0,7.6q0,7.571-10.77,7.574-10.673,0-10.675-7.9l.008-22.413q0-7.9,10.68-7.893,10.772,0,10.765,7.581Zm-9.171-5.613,0-8.589c0-1.22-.516-1.836-1.539-1.837-1.045,0-1.563.616-1.564,1.837v8.588Zm32.993-.46-9.171,0,0-8.117c0-1.132-.527-1.7-1.583-1.705a1.427,1.427,0,0,0-1.584,1.638l-.01,30.1-9.173,0,.013-37.413,9.171,0v1.253q1.832-1.517,5.675-1.516a7.616,7.616,0,0,1,4.7,1.464,4.6,4.6,0,0,1,1.966,3.861Zm-1.129,21.917-8.379,0,0-6.731,8.379,0Zm15.562-.853,0,8.776-9.171,0,.016-45.331,6.939,0,.78,1.507a8.434,8.434,0,0,1,5.345-1.77,11.08,11.08,0,0,1,5.784,1.586,4.99,4.99,0,0,1,2.66,4.543l-.008,26.889a4.461,4.461,0,0,1-1.938,3.772,7.718,7.718,0,0,1-4.7,1.416Q560.9,249.17,559.041,247.784Zm3.169-6.124.007-23.182c0-1.132-.515-1.7-1.56-1.705-1.068,0-1.607.572-1.607,1.7l-.007,23.248a1.436,1.436,0,0,0,1.6,1.639C561.693,243.364,562.21,242.793,562.21,241.66Zm20.453,6.989-9.173,0,.022-51.888,9.171,0Z" transform="translate(-427.888 -196.329)" fill="#fff"/>
        </g>
        <g id="Group_6" data-name="Group 6" transform="translate(133.449 8.833)">
          <path id="Path_6" data-name="Path 6" d="M565.139,382.515h-.809l-.279-.489a1.332,1.332,0,0,1-.474.479,1.582,1.582,0,0,1-.851.2,1.957,1.957,0,0,1-.67-.128,1.634,1.634,0,0,1-.6-.4,2.021,2.021,0,0,1-.423-.693,2.817,2.817,0,0,1-.157-1.019,3.375,3.375,0,0,1,.168-1.11,3.5,3.5,0,0,1,.435-.856,3.823,3.823,0,0,1,.6-.676,8.116,8.116,0,0,1,.67-.543l.642-.466a4.139,4.139,0,0,0,.532-.458v-.419a1.135,1.135,0,0,0-.175-.658.616.616,0,0,0-.549-.252.851.851,0,0,0-.91.57l-1.029-.671a4.875,4.875,0,0,1,.3-.4,1.642,1.642,0,0,1,.391-.343,1.946,1.946,0,0,1,.538-.229,2.856,2.856,0,0,1,.725-.081,1.883,1.883,0,0,1,1.409.546,2.087,2.087,0,0,1,.527,1.521Zm-1.191-4.563c-.158.1-.344.223-.558.367a4,4,0,0,0-.614.516,2.937,2.937,0,0,0-.5.675,1.774,1.774,0,0,0-.2.851,1.261,1.261,0,0,0,.235.823.83.83,0,0,0,.683.3.81.81,0,0,0,.719-.336,1.337,1.337,0,0,0,.232-.779Z" transform="translate(-560.875 -373.875)" fill="#ce171e"/>
        </g>
        <g id="Group_7" data-name="Group 7" transform="translate(138.901 8.835)">
          <path id="Path_7" data-name="Path 7" d="M584.678,367.391l-.008,3.349a2,2,0,0,1-.465,1.391,2.249,2.249,0,0,1-1.53.612.891.891,0,0,0-.63.223.535.535,0,0,0-.052.663.38.38,0,0,0,.3.188l2.665.006-.687,1.225-2.5,0q-.739,0-.739.492a.407.407,0,0,0,.186.379.915.915,0,0,0,.47.119l2.251,0-.676,1.228-1.607,0a1.87,1.87,0,0,1-1.353-.464,1.647,1.647,0,0,1-.472-1.244,1.576,1.576,0,0,1,.37-1.06,1.973,1.973,0,0,1,1.042-.6.533.533,0,0,1-.321-.236.726.726,0,0,1-.1-.377.642.642,0,0,1,.161-.4.911.911,0,0,1,.525-.285,1.943,1.943,0,0,1-1.113-1.87l.006-2.426a1.907,1.907,0,0,1,2.061-2.062,4.3,4.3,0,0,1,.811.065,1.754,1.754,0,0,1,.477.146l1.523,0Zm-1.231.89a.819.819,0,0,0-.279-.691,1.008,1.008,0,0,0-.639-.218,1.026,1.026,0,0,0-.652.216.824.824,0,0,0-.272.688l-.006,2.484a.823.823,0,0,0,.272.672.983.983,0,0,0,.647.223,1.006,1.006,0,0,0,.643-.22.8.8,0,0,0,.28-.669Z" transform="translate(-579.834 -366.242)" fill="#ce171e"/>
        </g>
        <g id="Group_8" data-name="Group 8" transform="translate(145.242 8.836)">
          <path id="Path_8" data-name="Path 8" d="M606.041,380.572a2.367,2.367,0,0,1-.161.9,1.916,1.916,0,0,1-.442.67,1.784,1.784,0,0,1-.663.409,2.466,2.466,0,0,1-1.639,0,1.845,1.845,0,0,1-.655-.412,1.9,1.9,0,0,1-.437-.672,2.4,2.4,0,0,1-.159-.9l.011-4.646a2.226,2.226,0,0,1,.163-.887,1.843,1.843,0,0,1,.446-.646,1.888,1.888,0,0,1,.677-.4,2.621,2.621,0,0,1,.838-.129,2.227,2.227,0,0,1,.816.149,1.951,1.951,0,0,1,.677.434,1.985,1.985,0,0,1,.458.7,2.528,2.528,0,0,1,.167.956,5.279,5.279,0,0,1-.176,1.45,3.015,3.015,0,0,1-.54,1.033,3.753,3.753,0,0,1-.938.806q-.572.363-1.367.764l0,.418a.9.9,0,0,0,.23.664.921.921,0,0,0,1.221,0,.876.876,0,0,0,.237-.66l0-.14,1.241-.4Zm-1.134-4.408a1.211,1.211,0,0,0-.264-.9.877.877,0,0,0-.625-.252.94.94,0,0,0-.638.228.86.86,0,0,0-.259.677l0,2.873a5.377,5.377,0,0,0,.907-.52,2.183,2.183,0,0,0,.546-.564,1.9,1.9,0,0,0,.265-.684,4.7,4.7,0,0,0,.072-.862" transform="translate(-601.884 -373.859)" fill="#ce171e"/>
        </g>
        <g id="Group_9" data-name="Group 9" transform="translate(150.85 8.839)">
          <path id="Path_9" data-name="Path 9" d="M625.766,383.155l-1.228,0,.013-6.572a.815.815,0,0,0-.292-.678,1.043,1.043,0,0,0-.667-.23,1.079,1.079,0,0,0-.665.226.8.8,0,0,0-.3.677l-.014,6.572-1.228,0,.018-8.524.809,0,.279.4a1.472,1.472,0,0,1,.515-.375,2.033,2.033,0,0,1,.823-.139,1.9,1.9,0,0,1,1.416.554,2.027,2.027,0,0,1,.534,1.475Z" transform="translate(-621.384 -374.513)" fill="#ce171e"/>
        </g>
        <g id="Group_10" data-name="Group 10" transform="translate(156.633 8.841)">
          <path id="Path_10" data-name="Path 10" d="M643.626,375a.94.94,0,0,0-.637.228.858.858,0,0,0-.259.677l-.011,4.646a.843.843,0,0,0,.258.663.911.911,0,0,0,.635.232.931.931,0,0,0,.628-.223.819.819,0,0,0,.266-.667l0-.139,1.227-.4,0,.544a2.422,2.422,0,0,1-.168.942,1.783,1.783,0,0,1-.463.655,1.992,1.992,0,0,1-.677.391,2.532,2.532,0,0,1-.816.129,2.5,2.5,0,0,1-.838-.141,1.9,1.9,0,0,1-.676-.412,1.88,1.88,0,0,1-.445-.666,2.375,2.375,0,0,1-.159-.906l.011-4.647a2.473,2.473,0,0,1,.163-.962,1.644,1.644,0,0,1,.446-.633,1.786,1.786,0,0,1,.677-.355,3.049,3.049,0,0,1,.838-.109,2.821,2.821,0,0,1,.816.114,1.789,1.789,0,0,1,.677.363,1.719,1.719,0,0,1,.46.642,2.452,2.452,0,0,1,.164.949v.362h-1.227v-.363a.856.856,0,0,0-.265-.679.917.917,0,0,0-.625-.23" transform="translate(-641.492 -373.846)" fill="#ce171e"/>
        </g>
        <g id="Group_11" data-name="Group 11" transform="translate(160.757 6.105)">
          <path id="Path_11" data-name="Path 11" d="M658.81,377.486a2.267,2.267,0,0,1-.156.828,2.158,2.158,0,0,1-.427.676,1.923,1.923,0,0,1-.671.461,2.277,2.277,0,0,1-.874.164,1.931,1.931,0,0,1-.85-.17l.322-1.239a.824.824,0,0,0,.531.182.915.915,0,0,0,.635-.231.867.867,0,0,0,.261-.673l.017-8.929h1.227Zm.078-11.024a.835.835,0,0,1-.181.544.576.576,0,0,1-.463.223.559.559,0,0,1-.459-.224.832.832,0,0,1-.181-.544.821.821,0,0,1,.182-.522.581.581,0,0,1,.92-.007.815.815,0,0,1,.181.531" transform="translate(-655.834 -365.709)" fill="#ce171e"/>
        </g>
        <g id="Group_12" data-name="Group 12" transform="translate(165.067 8.844)">
          <path id="Path_12" data-name="Path 12" d="M675.085,382.477h-.809l-.279-.489a1.326,1.326,0,0,1-.473.478,1.579,1.579,0,0,1-.852.2,1.958,1.958,0,0,1-.67-.128,1.62,1.62,0,0,1-.6-.4,1.986,1.986,0,0,1-.423-.693,2.789,2.789,0,0,1-.158-1.019,3.377,3.377,0,0,1,.168-1.11,3.541,3.541,0,0,1,.435-.856,3.92,3.92,0,0,1,.6-.677,8.317,8.317,0,0,1,.67-.542c.223-.162.437-.319.642-.466a4.141,4.141,0,0,0,.532-.459V375.9a1.135,1.135,0,0,0-.175-.658.616.616,0,0,0-.549-.252.852.852,0,0,0-.91.569l-1.029-.67c.093-.139.193-.274.3-.4a1.642,1.642,0,0,1,.391-.343,1.947,1.947,0,0,1,.538-.229,2.806,2.806,0,0,1,.725-.081,1.878,1.878,0,0,1,1.409.546,2.087,2.087,0,0,1,.527,1.521Zm-1.191-4.563c-.158.1-.344.223-.558.367a4,4,0,0,0-.614.516,2.9,2.9,0,0,0-.5.675,1.762,1.762,0,0,0-.2.851,1.261,1.261,0,0,0,.235.823.829.829,0,0,0,.683.295.809.809,0,0,0,.719-.334,1.35,1.35,0,0,0,.234-.779Z" transform="translate(-670.821 -373.838)" fill="#ce171e"/>
        </g>
        <g id="Group_13" data-name="Group 13" transform="translate(175.386 6.11)">
          <path id="Path_13" data-name="Path 13" d="M708,375.266a.944.944,0,0,1-.182.543.535.535,0,0,1-.448.224.554.554,0,0,1-.458-.226.878.878,0,0,1,0-1.068.573.573,0,0,1,.462-.226.548.548,0,0,1,.452.223A.836.836,0,0,1,708,375.266Zm-.065,10.616-1.227,0,.017-8.524,1.228,0Z" transform="translate(-706.705 -374.513)" fill="#ce171e"/>
        </g>
        <g id="Group_14" data-name="Group 14" transform="translate(178.04 8.848)">
          <path id="Path_14" data-name="Path 14" d="M720.315,383.125l-1.228,0,.014-6.571a.817.817,0,0,0-.294-.679,1.042,1.042,0,0,0-.666-.23,1.09,1.09,0,0,0-.666.228.8.8,0,0,0-.3.677l-.014,6.571-1.227,0,.017-8.524.809,0,.279.4a1.474,1.474,0,0,1,.516-.374,1.993,1.993,0,0,1,.823-.139,1.893,1.893,0,0,1,1.415.554,2.027,2.027,0,0,1,.536,1.474Z" transform="translate(-715.934 -374.484)" fill="#ce171e"/>
        </g>
        <g id="Group_15" data-name="Group 15" transform="translate(183.696 6.994)">
          <path id="Path_15" data-name="Path 15" d="M738.224,383.273a.6.6,0,0,0,.558-.277l.848.92a1.548,1.548,0,0,1-.615.433,1.951,1.951,0,0,1-.739.151,1.815,1.815,0,0,1-1.437-.54,2.305,2.305,0,0,1-.471-1.57l.013-5.524-.781,0v-1.088l.781,0,0-1.548,1.228-.416,0,1.968,1.619,0v1.088l-1.619,0-.013,5.525q0,.879.628.88" transform="translate(-735.601 -373.813)" fill="#ce171e"/>
        </g>
        <g id="Group_16" data-name="Group 16" transform="translate(188.568 8.851)">
          <path id="Path_16" data-name="Path 16" d="M756.7,380.519a2.4,2.4,0,0,1-.161.9,1.944,1.944,0,0,1-.442.67,1.818,1.818,0,0,1-.663.409,2.47,2.47,0,0,1-1.64,0,1.862,1.862,0,0,1-.655-.412,1.921,1.921,0,0,1-.436-.672,2.377,2.377,0,0,1-.161-.9l.011-4.647a2.241,2.241,0,0,1,.163-.885,1.823,1.823,0,0,1,1.124-1.044,2.577,2.577,0,0,1,.838-.131,2.262,2.262,0,0,1,.816.15,1.954,1.954,0,0,1,.676.433,1.985,1.985,0,0,1,.458.7,2.528,2.528,0,0,1,.168.956,5.244,5.244,0,0,1-.177,1.451,3,3,0,0,1-.54,1.033,3.748,3.748,0,0,1-.937.806c-.381.241-.838.5-1.367.764l0,.418a.9.9,0,0,0,.23.663.83.83,0,0,0,.621.232.815.815,0,0,0,.6-.23.875.875,0,0,0,.238-.66v-.139l1.243-.4Zm-1.134-4.41a1.209,1.209,0,0,0-.265-.9.872.872,0,0,0-.625-.252.943.943,0,0,0-.637.228.861.861,0,0,0-.258.677l-.006,2.873a5.354,5.354,0,0,0,.907-.52,2.186,2.186,0,0,0,.546-.566,1.9,1.9,0,0,0,.266-.683,4.709,4.709,0,0,0,.072-.863" transform="translate(-752.542 -373.804)" fill="#ce171e"/>
        </g>
        <g id="Group_17" data-name="Group 17" transform="translate(194.177 8.853)">
          <path id="Path_17" data-name="Path 17" d="M774.184,374.488a.985.985,0,0,1,.725.237l-.422,1.1a.481.481,0,0,0-.374-.111.766.766,0,0,0-.574.27.975.975,0,0,0-.252.69l-.014,6.447-1.227,0,.017-8.511.809,0,.279.544a1.515,1.515,0,0,1,.369-.447.993.993,0,0,1,.664-.22" transform="translate(-772.046 -374.488)" fill="#ce171e"/>
        </g>
        <g id="Group_18" data-name="Group 18" transform="translate(197.729 8.854)">
          <path id="Path_18" data-name="Path 18" d="M788.66,382.435h-.809l-.279-.489a1.314,1.314,0,0,1-.474.479,1.572,1.572,0,0,1-.851.2,1.957,1.957,0,0,1-.67-.128,1.649,1.649,0,0,1-.6-.4,2.007,2.007,0,0,1-.422-.694,2.786,2.786,0,0,1-.158-1.019,3.369,3.369,0,0,1,.168-1.108,3.48,3.48,0,0,1,.435-.856,3.921,3.921,0,0,1,.6-.677,7.848,7.848,0,0,1,.67-.542l.642-.467a4.047,4.047,0,0,0,.532-.458v-.418a1.133,1.133,0,0,0-.175-.658.616.616,0,0,0-.549-.252.85.85,0,0,0-.909.569l-1.029-.67a4.919,4.919,0,0,1,.3-.405,1.612,1.612,0,0,1,.391-.341,1.948,1.948,0,0,1,.538-.23,2.859,2.859,0,0,1,.725-.081,1.879,1.879,0,0,1,1.409.548,2.085,2.085,0,0,1,.527,1.521Zm-1.191-4.563c-.158.1-.344.224-.558.368a3.933,3.933,0,0,0-.614.516,2.918,2.918,0,0,0-.5.673,1.765,1.765,0,0,0-.2.851,1.267,1.267,0,0,0,.235.824.83.83,0,0,0,.684.295.811.811,0,0,0,.718-.334,1.34,1.34,0,0,0,.232-.779Z" transform="translate(-784.396 -373.796)" fill="#ce171e"/>
        </g>
        <g id="Group_19" data-name="Group 19" transform="translate(203.419 6.119)">
          <path id="Path_19" data-name="Path 19" d="M808.62,385.829l-1.422,0-1.778-4.553-.008,4.549-1.227,0,.022-10.966,1.231-.4-.011,5.372,1.607-2.522,1.354,0-2.043,3.178Z" transform="translate(-804.184 -374.45)" fill="#ce171e"/>
        </g>
        <g id="Group_20" data-name="Group 20" transform="translate(208.852 7.003)">
          <path id="Path_20" data-name="Path 20" d="M825.7,383.243a.6.6,0,0,0,.557-.277l.848.921a1.557,1.557,0,0,1-.614.433,1.956,1.956,0,0,1-.739.151,1.822,1.822,0,0,1-1.438-.54,2.32,2.32,0,0,1-.471-1.57l.014-5.525-.781,0v-1.088l.781,0,0-1.549,1.228-.415,0,1.966,1.618,0v1.088l-1.619,0-.013,5.524q0,.879.628.879" transform="translate(-823.076 -373.784)" fill="#ce171e"/>
        </g>
        <g id="Group_21" data-name="Group 21" transform="translate(213.934 8.967)">
          <path id="Path_21" data-name="Path 21" d="M845.007,377.069l-1.256,0,0-2.651a1.094,1.094,0,0,1-.341.307,1.5,1.5,0,0,1-.774.153,2.3,2.3,0,0,1-.691-.115,1.626,1.626,0,0,1-.606-.356,1.774,1.774,0,0,1-.43-.637,2.447,2.447,0,0,1-.167-.962l.013-6.655,1.228,0-.014,6.6a.843.843,0,0,0,.258.671.962.962,0,0,0,.649.225.92.92,0,0,0,.621-.223.836.836,0,0,0,.258-.67l.014-6.6,1.256,0Z" transform="translate(-840.746 -366.15)" fill="#ce171e"/>
        </g>
        <g id="Group_22" data-name="Group 22" transform="translate(219.336 8.968)">
          <path id="Path_22" data-name="Path 22" d="M866.422,374.444l-1.524,8.522-1.13,0-.812-5.079-.847,5.077-1.13,0-1.449-8.528,1.367,0,.645,5.387.945-5.385,1.047,0,.924,5.389.666-5.385Z" transform="translate(-859.53 -374.429)" fill="#ce171e"/>
        </g>
        <g id="Group_23" data-name="Group 23" transform="translate(227.33 8.864)">
          <path id="Path_23" data-name="Path 23" d="M891.711,383.063l-1.228,0,.014-6.571a.816.816,0,0,0-.292-.679,1.048,1.048,0,0,0-.667-.23,1.07,1.07,0,0,0-.665.228.8.8,0,0,0-.3.677l-.014,6.571-1.227,0,.017-8.524.809,0,.279.405a1.459,1.459,0,0,1,.516-.374,2.011,2.011,0,0,1,.823-.14,1.9,1.9,0,0,1,1.416.554,2.029,2.029,0,0,1,.534,1.475Z" transform="translate(-887.33 -374.421)" fill="#ce171e"/>
        </g>
        <g id="Group_24" data-name="Group 24" transform="translate(233.03 8.867)">
          <path id="Path_24" data-name="Path 24" d="M911.415,382.394h-.81l-.278-.489a1.342,1.342,0,0,1-.474.479,1.587,1.587,0,0,1-.852.2,1.93,1.93,0,0,1-.67-.129,1.617,1.617,0,0,1-.6-.4,2.019,2.019,0,0,1-.423-.694,2.811,2.811,0,0,1-.158-1.018,3.38,3.38,0,0,1,.168-1.11,3.513,3.513,0,0,1,.435-.854,3.92,3.92,0,0,1,.6-.677,8.239,8.239,0,0,1,.67-.542l.642-.467a4.138,4.138,0,0,0,.533-.458v-.419a1.135,1.135,0,0,0-.175-.658.617.617,0,0,0-.548-.25.849.849,0,0,0-.909.569l-1.031-.67c.094-.14.193-.274.3-.4a1.636,1.636,0,0,1,.391-.341,1.912,1.912,0,0,1,.538-.23,2.874,2.874,0,0,1,.726-.081,1.874,1.874,0,0,1,1.408.548,2.083,2.083,0,0,1,.528,1.521Zm-1.191-4.563c-.159.1-.345.224-.558.368a3.875,3.875,0,0,0-.615.515,2.925,2.925,0,0,0-.5.675,1.764,1.764,0,0,0-.2.851,1.274,1.274,0,0,0,.234.824.83.83,0,0,0,.684.295.812.812,0,0,0,.719-.334,1.36,1.36,0,0,0,.232-.779Z" transform="translate(-907.15 -373.754)" fill="#ce171e"/>
        </g>
        <g id="Group_25" data-name="Group 25" transform="translate(210.796 60.799) rotate(-179.977)">
          <rect id="Rectangle_1" data-name="Rectangle 1" width="8.381" height="6.731" fill="#ce171e"/>
        </g>
        <g id="Group_26" data-name="Group 26" transform="translate(95.204 8.491)">
          <path id="Path_25" data-name="Path 25" d="M449.4,248.6l-8.1,0v-1.452q-1.041,1.981-5.9,1.978-7.5,0-7.508-5.875l0-7.511a6.087,6.087,0,0,1,1.826-4.388q1.817-1.864,7.327-4.671c2.122-1.077,3.19-1.935,3.19-2.573l0-5.543c0-1.221-.527-1.837-1.584-1.837-1.209,0-1.8,1.5-1.8,4.475,0,.538.022,1.33.087,2.387.087,1.056.131,1.846.131,2.386l-8.842,0,0-7.479q0-7.571,10.946-7.573,10.243,0,10.235,7.9Zm-9.169-6.986,0-9.645q-3.167.775-3.169,2.836v6.807a1.483,1.483,0,0,0,1.649,1.705C439.721,243.323,440.227,242.752,440.227,241.618Zm20.78-36.336-9.173,0,.115-8.951,9.173,0ZM446.6,256.522v-5.477a15.28,15.28,0,0,0,4.388-.35c.518-.242.77-.979.77-2.222l.013-37.281,9.173,0-.014,38.271q0,7.06-7.469,7.056Zm50.634-7.9-9.171,0,.01-29.9c0-1.132-.516-1.705-1.561-1.705a1.437,1.437,0,0,0-1.606,1.638l-.011,29.968-9.171,0,.01-30.022c0-1.144-.515-1.716-1.561-1.717a1.44,1.44,0,0,0-1.6,1.65l-.012,30.088-9.171,0L463.4,211.2l9.173,0v1.32q1.9-1.583,5.7-1.582a8.106,8.106,0,0,1,5.805,2.552,8.623,8.623,0,0,1,6.6-2.549,7.788,7.788,0,0,1,4.487,1.432,4.563,4.563,0,0,1,2.089,3.981Zm23.552-15.828-12.274,0,0,8.667c0,1.264.516,1.892,1.561,1.892,1.022,0,1.54-.627,1.54-1.891l0-7.479,9.173,0,0,7.6q0,7.571-10.77,7.574-10.673,0-10.675-7.9l.008-22.413q0-7.9,10.68-7.893,10.772,0,10.765,7.581Zm-9.171-5.613,0-8.589c0-1.22-.516-1.836-1.539-1.837-1.045,0-1.563.616-1.564,1.837v8.588Zm32.993-.46-9.171,0,0-8.117c0-1.132-.527-1.7-1.583-1.705a1.427,1.427,0,0,0-1.584,1.638l-.01,30.1-9.173,0,.013-37.413,9.171,0v1.253q1.832-1.517,5.675-1.516a7.616,7.616,0,0,1,4.7,1.464,4.6,4.6,0,0,1,1.966,3.861Zm14.433,21.064,0,8.776-9.171,0,.016-45.331,6.939,0,.78,1.507a8.434,8.434,0,0,1,5.345-1.77,11.08,11.08,0,0,1,5.784,1.586,4.99,4.99,0,0,1,2.66,4.543l-.008,26.889a4.461,4.461,0,0,1-1.938,3.772,7.718,7.718,0,0,1-4.7,1.416Q560.9,249.17,559.041,247.784Zm3.169-6.124.007-23.182c0-1.132-.515-1.7-1.56-1.705-1.068,0-1.607.572-1.607,1.7l-.007,23.248a1.436,1.436,0,0,0,1.6,1.639C561.693,243.364,562.21,242.793,562.21,241.66Zm20.453,6.989-9.173,0,.022-51.888,9.171,0Z" transform="translate(-427.888 -196.329)" fill="#231f20"/>
        </g>
      </g>
    </g>
  </g>
</svg>
