<svg xmlns="http://www.w3.org/2000/svg" width="12" height="15.996" viewBox="0 0 12 15.996">
  <g id="bag" transform="translate(-49.762 0)">
    <g id="bag-2" data-name="bag" transform="translate(49.763 0)">
      <path id="Path_7" data-name="Path 7" d="M61.269,5.107a.56.56,0,0,0-.551-.537h-2.2V2.856a2.757,2.757,0,1,0-5.51,0V4.57H50.8a.56.56,0,0,0-.551.537l-.485,9.078a1.693,1.693,0,0,0,1.557,1.808l.1,0h8.689a1.684,1.684,0,0,0,1.656-1.711q0-.05,0-.1ZM54.107,2.856a1.654,1.654,0,1,1,3.306,0V4.57H54.107Z" transform="translate(-49.763 0)" fill="#004880"/>
    </g>
  </g>
</svg>
