<svg xmlns="http://www.w3.org/2000/svg" width="20" height="16" viewBox="0 0 20 16">
  <g id="email" transform="translate(0 -64.267)">
    <path id="Path_479" data-name="Path 479" d="M11.917,72.157a1.86,1.86,0,0,0,1.959,0h0l8.894-6.339a2.173,2.173,0,0,0-2.035-1.552H5.058a2.173,2.173,0,0,0-2.035,1.552l8.894,6.339Z" transform="translate(-2.897)" fill="#004880"/>
    <path id="Path_480" data-name="Path 480" d="M11.631,141.454h0a2.966,2.966,0,0,1-3.261,0h0L0,135.494V146.22a2.234,2.234,0,0,0,2.155,2.3h15.69A2.234,2.234,0,0,0,20,146.22V135.494Z" transform="translate(0 -68.255)" fill="#004880"/>
  </g>
</svg>
