<svg xmlns="http://www.w3.org/2000/svg" width="16" height="16" viewBox="0 0 16 16">
  <g id="_x31_0.Linkedin" transform="translate(-10 -10)">
    <path id="Path_482" data-name="Path 482" d="M48.64,46.24V40.38c0-2.88-.62-5.08-3.98-5.08a3.473,3.473,0,0,0-3.14,1.72h-.04V35.56H38.3V46.24h3.32v-5.3c0-1.4.26-2.74,1.98-2.74,1.7,0,1.72,1.58,1.72,2.82v5.2h3.32Z" transform="translate(-22.64 -20.24)" fill="#004880"/>
    <path id="Path_483" data-name="Path 483" d="M11.3,36.6h3.32V47.28H11.3Z" transform="translate(-1.04 -21.28)" fill="#004880"/>
    <path id="Path_484" data-name="Path 484" d="M11.92,10a1.93,1.93,0,1,0,1.92,1.92A1.92,1.92,0,0,0,11.92,10Z" fill="#004880"/>
  </g>
</svg>
