<svg xmlns="http://www.w3.org/2000/svg" width="12" height="15.996" viewBox="0 0 12 15.996">
  <g id="man-user" transform="translate(-41.895)">
    <path id="Path_1" data-name="Path 1" d="M107.672,7.823c1.732,0,3.137-1.751,3.137-3.912S110.348,0,107.672,0s-3.137,1.751-3.137,3.912S105.94,7.823,107.672,7.823Z" transform="translate(-59.777)" fill="#004880"/>
    <path id="Path_2" data-name="Path 2" d="M41.9,300.44c0-.132,0-.037,0,0Z" transform="translate(0 -286.644)" fill="#004880"/>
    <path id="Path_3" data-name="Path 3" d="M308.085,301.606c0-.036,0-.25,0,0Z" transform="translate(-254.191 -287.707)" fill="#004880"/>
    <path id="Path_4" data-name="Path 4" d="M53.9,183.254c-.059-3.763-.544-4.836-4.253-5.514a2.579,2.579,0,0,1-3.479,0c-3.669.671-4.183,1.728-4.251,5.392-.006.3-.008.315-.009.28,0,.065,0,.185,0,.4,0,0,.883,1.805,6,1.805s6-1.805,6-1.805c0-.135,0-.229,0-.292A2.455,2.455,0,0,1,53.9,183.254Z" transform="translate(-0.012 -169.617)" fill="#004880"/>
  </g>
</svg>
