<svg xmlns="http://www.w3.org/2000/svg" width="32.005" height="32" viewBox="0 0 32.005 32">
  <g id="placeholder" transform="translate(-0.005 -1)">
    <g id="Group_20" data-name="Group 20" transform="translate(0.005 1)">
      <g id="Group_19" data-name="Group 19">
        <path id="Path_56" data-name="Path 56" d="M24.314,313.494a1.333,1.333,0,0,0-.615,2.594c4.142.983,5.644,2.436,5.644,3.175,0,1.594-5.318,4-13.335,4s-13.335-2.407-13.335-4c0-.739,1.5-2.192,5.642-3.175a1.333,1.333,0,0,0-.615-2.594c-4.962,1.176-7.694,3.225-7.694,5.769,0,4.377,8.052,6.668,16,6.668s16-2.291,16-6.668C32.01,316.719,29.277,314.671,24.314,313.494Z" transform="translate(-0.005 -293.931)" fill="#fff"/>
        <path id="Path_57" data-name="Path 57" d="M236.016,131.682a1.333,1.333,0,1,0-1.334-1.333A1.334,1.334,0,0,0,236.016,131.682Z" transform="translate(-220.012 -121.014)" fill="#fff"/>
        <path id="Path_58" data-name="Path 58" d="M114.284,25.849l.543,1.085a1.335,1.335,0,0,0,2.387,0l1.149-2.3a92.271,92.271,0,0,1,4.793-8.132l.76-1.2A9.332,9.332,0,0,0,114.93,1.064a9.327,9.327,0,0,0-6.43,14.793A67.094,67.094,0,0,1,114.284,25.849Zm1.736-19.514a4,4,0,1,1-4,4A4.006,4.006,0,0,1,116.021,6.335Z" transform="translate(-100.018 -1)" fill="#fff"/>
      </g>
    </g>
  </g>
</svg>
